<?xml version="1.0" encoding="UTF-8" standalone="no"?>
<svg
   width="308.76129"
   height="304.91568"
   viewBox="0 0 106.00784 104.68752"
   class="css-1j8o68f"
   version="1.1"
   id="svg23"
   sodipodi:docname="logo.svg"
   xmlns:inkscape="http://www.inkscape.org/namespaces/inkscape"
   xmlns:sodipodi="http://sodipodi.sourceforge.net/DTD/sodipodi-0.dtd"
   xmlns="http://www.w3.org/2000/svg"
   xmlns:svg="http://www.w3.org/2000/svg">
  <sodipodi:namedview
     id="namedview25"
     pagecolor="#ffffff"
     bordercolor="#000000"
     borderopacity="0.25"
     inkscape:showpageshadow="2"
     inkscape:pageopacity="0.0"
     inkscape:pagecheckerboard="0"
     inkscape:deskcolor="#d1d1d1"
     showgrid="false" />
  <defs
     id="SvgjsDefs2684" />
  <g
     id="SvgjsG2685"
     featurekey="rootContainer"
     transform="matrix(0.98205925,0,0,0.98205925,-0.05455885,0)"
     fill="#ff4a3f">
    <g
       id="g17"
       style="fill:#213e60;fill-opacity:1"
       inkscape:export-filename="../../../../../Portfolio/Logo/logo.png"
       inkscape:export-xdpi="1000"
       inkscape:export-ydpi="1000">
      <path
         d="m 19.8,15.3 h 0.5 l -0.4,-0.2 z m 0.5,0.1 z m 0.8,-0.7 c 0,0.1 0,0.1 0.1,0.1 l 0.4,-0.3 c -0.2,-0.1 -0.3,-0.1 -0.5,0.2 z m 0.4,-0.2 z m -4.1,2.3 z m -0.2,0.6 0.3,-0.2 C 17.6,17.1 17.6,17 17.6,17 h -0.2 l -0.2,0.4 c -0.1,-0.1 -0.1,0 0,0 z m 2.2,-2.9 h -0.1 l -0.2,0.2 h 0.3 z m -2.1,2.4 0.6,-0.5 C 18,16.3 18,16.2 18,16.1 H 17.7 L 16.5,17.2 16.3,17.6 17,17 Z m -1.1,0.8 z"
         id="path3"
         style="fill:#213e60;fill-opacity:1" />
      <path
         d="m 9.7,25 v -0.2 a 1.7,1.7 0 0 1 0.7,-1.1 l 0.9,-0.6 0.5,-0.6 0.7,-0.7 0.4,-0.4 0.4,-0.3 a 1.9,1.9 0 0 0 0.8,-0.9 l 0.4,-0.5 a 5.9,5.9 0 0 0 1,-1.3 l 0.2,-0.3 0.3,-0.2 -0.2,-0.3 0.4,-0.5 c 0.8,-0.6 1.4,-1.4 2.2,-2 l 0.3,-0.3 a 1.4,1.4 0 0 1 0.5,-0.6 L 20,13.8 h 0.4 a 1.4,1.4 0 0 0 0.7,-0.6 V 13 a 3.5,3.5 0 0 1 1.3,-1.4 l 0.8,-0.5 0.2,-0.2 0.4,-0.4 1,-0.5 H 25 l -1.1,0.4 -1.4,1 c -0.6,0.5 -1.4,0.6 -1.8,1.4 H 21 c -0.7,0.2 -1.4,0.5 -1.7,1.2 -0.3,0.7 -0.8,0.6 -1.2,0.9 a 0.4,0.4 0 0 0 -0.3,0.4 C 17,15.2 16.7,15.8 16.3,16.2 V 17 a 3.9,3.9 0 0 0 -1.6,1.4 c -1.6,0.1 -1.6,2.1 -3,2.5 h -0.1 a 0.2,0.2 0 0 0 0,0.2 c -0.3,0 -0.5,0.2 -0.4,0.5 L 11,22.1 c -0.7,0.4 -0.6,1.1 -1,1.7 -0.8,0.5 -1.1,1.5 -1.7,2.2 l 0.3,0.5 0.2,-0.2 A 11.6,11.6 0 0 1 9.7,25 Z M 53.9,3.3 54.5,3.5 h 0.2 a 2.2,2.2 0 0 0 1.4,0.2 4.1,4.1 0 0 1 1.9,0.1 h 1.2 a 1.4,1.4 0 0 1 1.2,0.3 0.1,0.1 0 0 1 0,0.1 H 60 a 0.1,0.1 0 0 0 0,0.1 h 0.7 a 1.8,1.8 0 0 1 1.3,0 c 0.2,0 0.1,0.1 0.2,0.2 l 0.5,0.2 H 62.5 C 62.3,4.3 62,4.3 61.7,4.3 A 9.7,9.7 0 0 0 57.4,3.4 H 56.6 A 9.8,9.8 0 0 0 53,3 h 0.2 z m 7.3,3.1 z M 50.3,4.7 Z m 10.9,1.7 h 0.2 z M 19,14.7 Z m 32.1,-10 z m 17.6,2.2 a 0.9,0.9 0 0 0 1,0.2 h 0.6 A 3.1,3.1 0 0 0 68.5,6.4 L 67.8,6.2 68.3,6.5 Z M 65.3,5.6 c 0,0.1 0.1,0.2 0.2,0.3 h 0.2 L 66.2,5.6 A 4.2,4.2 0 0 0 64.5,5 l 0.7,0.4 z m 7.4,2.7 0.8,0.5 C 73.3,8.5 73.1,8.3 72.7,8.3 Z"
         id="path5"
         style="fill:#213e60;fill-opacity:1" />
      <path
         d="m 99,76.1 0.6,-1.6 0.6,-1.5 c 0.2,-0.5 0.6,-1.8 0.8,-2.6 a 1.7,1.7 0 0 1 0.3,-0.7 h 0.1 v -1.1 c 0.5,-0.1 0.4,-0.6 0.5,-0.9 l 0.8,-4.7 a 12.7,12.7 0 0 0 0,-6.2 1.9,1.9 0 0 0 -0.5,-1.6 V 50.9 C 101.9,50 102.5,49 101.8,48.2 L 101,45 a 0.4,0.4 0 0 0 0,-0.2 l -0.2,-0.6 a 0.5,0.5 0 0 1 0,-0.4 h 0.1 c 0.3,0 0.3,-0.5 0.3,-0.9 a 3,3 0 0 0 -0.4,-1.1 l -0.3,-0.4 a 1.1,1.1 0 0 1 -0.2,-0.7 6.7,6.7 0 0 0 -0.2,-2 V 38.1 C 99.9,37.4 99.7,36.6 99.5,35.9 L 99.3,35.4 A 2.5,2.5 0 0 1 98.9,34.3 2.5,2.5 0 0 0 98.6,33.5 L 98,32.5 A 0.8,0.8 0 0 0 97.4,32.3 H 97.3 V 32 H 97.1 V 31.2 H 97 V 31 a 0.4,0.4 0 0 0 0,-0.1 v -0.2 c 0.1,-0.2 0.1,-0.3 -0.1,-0.5 A 1.8,1.8 0 0 1 96.5,29.6 L 96.3,29 a 2.9,2.9 0 0 0 -0.7,-1.2 2.2,2.2 0 0 1 -0.5,-0.7 l -0.7,-1.6 a 4.3,4.3 0 0 0 -0.6,-1 l -0.6,-0.8 a 2.4,2.4 0 0 1 -0.4,-0.8 l -0.2,-0.3 a 0.6,0.6 0 0 1 -0.1,-0.5 0.5,0.5 0 0 0 -0.2,-0.4 l -0.4,-0.3 v 0.2 c 0.1,0.2 0,0.3 -0.1,0.3 h -0.2 l 0.3,1 0.3,0.5 0.7,0.9 H 92.8 L 92.6,24.1 92.4,23.9 A 1.3,1.3 0 0 0 91.2,22.8 V 22.1 C 90.9,20.9 89.6,20.8 89,20 a 1.5,1.5 0 0 0 -1.1,-0.9 l -0.8,-0.9 a 11.3,11.3 0 0 0 -3.1,-3 l -0.8,-0.6 -0.4,-0.3 c -0.7,-0.7 -1,-1.8 -2.2,-1.8 L 79.8,12 78.9,11.3 A 2.2,2.2 0 0 0 77.1,10 5.1,5.1 0 0 0 74.8,8.8 L 75,9 l 0.5,0.4 1.3,0.7 a 8.5,8.5 0 0 1 2.1,1.6 6.8,6.8 0 0 0 1.5,1.1 l 0.6,0.5 c 0.1,0.1 0.2,0.2 0.1,0.3 H 81 l -0.9,-0.3 a 5.6,5.6 0 0 1 -2,-0.8 L 76.9,11.9 75.6,11.2 H 75.4 C 75.1,11.1 75,10.8 74.6,10.7 L 73.8,10.5 71.3,10 A 2.6,2.6 0 0 1 70.4,9.3 1.7,1.7 0 0 1 69.5,9 l -1,-0.4 A 18.1,18.1 0 0 1 65.7,7.8 L 65.1,7.6 64.1,7.3 H 63.6 L 63.4,7 V 6.9 H 61.8 L 61.2,6.4 60.8,6.6 60.4,6.8 H 60.2 L 59.3,6.3 C 58.7,6.9 58.2,6.1 57.7,6.2 l -1,-0.3 a 1.2,1.2 0 0 1 -1.2,0 H 54.3 A 0.6,0.6 0 0 1 53.8,5.3 l 0.3,-0.2 h 0.6 a 0.7,0.7 0 0 1 0.1,0.3 c 0,0.2 0.2,0.2 0.5,0.2 h 0.2 L 55.1,5 a 1.1,1.1 0 0 0 -1,-0.2 l -1,0.3 H 53 c 0.3,0.2 0.2,0.3 0.2,0.5 H 51.6 L 51.2,5.4 50.4,5 H 50.3 L 49.6,4.8 h -2.3 l 0.4,-0.2 0.8,-0.2 h 0.3 l 1.7,-0.3 1.1,-0.2 0.6,-0.2 h -1.1 a 8.4,8.4 0 0 0 -3.4,0 H 46.4 L 43,3.6 c -1.4,0.1 -2.8,0 -3.9,1.2 -2.5,-0.4 -4.7,0.7 -6.9,1.8 L 30,7.5 a 6.7,6.7 0 0 0 -3.7,1.8 h 0.3 l 0.5,-0.3 0.8,-0.5 1.3,-0.6 1,-0.2 a 6,6 0 0 1 2,-0.9 l 0.9,-0.3 h 0.2 c 0.1,0.2 0.5,0 0.7,0 h 0.2 c 0.1,0 0.1,0.1 0,0.1 l -0.6,0.4 1,-0.3 0.8,-0.2 -1.3,0.7 -1.3,0.4 a 1,1 0 0 0 -0.6,0.5 l -0.3,0.5 h 0.3 L 32.6,8.4 A 1.4,1.4 0 0 1 33.5,7.8 L 35,7.3 h 0.5 a 0.1118034,0.1118034 0 0 1 0.1,0.2 C 35.4,7.7 35,7.8 34.8,8 H 35 L 31.8,8.9 28,10.5 A 5.2,5.2 0 0 1 25.7,11.7 6.6,6.6 0 0 1 24,12.8 L 23.2,13 a 1.5,1.5 0 0 1 -1.3,0.9 l -0.3,0.5 a 3.7,3.7 0 0 1 -1.2,1.1 h -0.1 v -0.1 l -0.2,0.2 -0.2,0.2 -1,0.2 H 18.4 L 18,16.5 c -0.1,0.1 -0.1,0.2 0,0.2 h 0.1 c -0.6,0.6 -1,1.4 -1.8,1.7 L 15,19.9 c -0.6,1.2 -1.8,1.6 -2.6,2.6 -0.8,1 -1.4,3.9 -3.9,4.3 L 8.3,26.5 8.1,27 a 2.7,2.7 0 0 1 -0.4,0.8 16.9,16.9 0 0 0 -1.2,2.1 0.8,0.8 0 0 0 -0.1,0.5 1.4,1.4 0 0 1 -0.2,0.8 l -0.5,1.1 h 0.2 c 0.3,0 0.3,0.3 0.4,0.6 l 0.8,-1.1 a 2.2,2.2 0 0 1 0.6,-0.7 2,2 0 0 0 0.9,-0.9 l 0.3,-0.3 0.4,-0.4 0.6,-1.1 h 0.2 c 0.1,0.1 0.1,0.1 0.2,0 L 10.5,28 H 11 v 0.8 l 0.5,-0.5 a 0.5,0.5 0 0 0 0,-0.5 0.4,0.4 0 0 1 0.1,-0.3 1.5,1.5 0 0 0 0.3,-0.5 1.3,1.3 0 0 1 0.8,-0.9 l 0.3,-0.2 0.3,-0.3 a 2.4,2.4 0 0 0 0.8,-1 l -0.2,-0.3 c 0,-0.1 0.1,-0.3 0.2,-0.4 h 0.5 l 0.6,-0.8 0.6,-0.3 H 16 A 48.8,48.8 0 0 0 10.5,30 h -0.1 0.1 A 48.4,48.4 0 0 0 5.2,41.2 H 4.7 L 4.2,40.8 C 4,40.6 4.1,40.1 3.8,39.9 H 3.9 C 4.2,39.4 3.8,38.7 4.2,38.2 4.6,37.7 4.3,36.8 3.3,37 c -1,0.2 -1.5,0.5 -1.3,1.5 0.2,1 -1,1.8 -1.1,2.9 -0.1,1.1 -0.5,0.5 -0.3,0.9 v 3.9 C 0.7,47 0.1,48 1.4,48.3 l 1.3,0.9 c 0.1,0.5 -0.5,1.6 0.9,1.3 a 49.2,49.2 0 0 0 -0.3,5 c 0,1.1 0.1,2.2 0.1,3.3 V 58.4 C 3.3,58 3.3,57.6 3.2,57.1 L 2.9,57.4 V 57.2 H 2.4 C 2.4,57.7 2.3,58 2,58.1 a 0.9,0.9 0 0 0 -0.1,0.5 c 0,0.1 0.1,0.3 0.2,0.2 0.1,-0.1 0.4,0.2 0.7,0.4 0.3,0.2 -0.2,0.3 -0.4,0.2 -0.2,-0.1 -0.2,0.1 -0.2,0.3 V 60 l 0.5,1.5 c 0,0.3 -0.1,0.6 -0.1,0.9 a 1.7,1.7 0 0 0 0.2,0.8 H 2.5 V 62.9 L 1.8,62.7 V 62.1 A 1.5,1.5 0 0 0 1.8,61.6 14.6,14.6 0 0 1 1.5,59.8 16.6,16.6 0 0 1 1.3,56.3 0.9,0.9 0 0 1 1.4,55.8 V 56 a 2.9,2.9 0 0 1 0.1,0.5 0.8,0.8 0 0 0 0.1,0.4 c 0.1,0.2 0.2,0.4 0.4,0.4 0.2,0 0.1,-0.1 0.1,-0.2 A 2.1,2.1 0 0 0 2,56.6 4.2,4.2 0 0 1 1.7,55.3 1.5,1.5 0 0 0 1.4,54.6 1.6,1.6 0 0 1 1.2,53.7 V 52.9 C 1.2,52.6 1.3,52.3 1.3,52 A 0.5,0.5 0 0 0 1.2,51.6 H 1.1 C 0.3,52 0.4,51.8 0.1,53.2 V 55 c 0,0.7 -0.1,1.4 0,2.1 a 10.8,10.8 0 0 0 0.2,2.3 1.8,1.8 0 0 1 0,0.5 3.1,3.1 0 0 0 0.1,0.9 5.9,5.9 0 0 1 0.1,1.3 3.9,3.9 0 0 0 0.2,1.7 1.2,1.2 0 0 1 0,0.4 2.1,2.1 0 0 0 0.1,0.8 4.9,4.9 0 0 1 0.2,0.9 14,14 0 0 0 0.5,2.2 5,5 0 0 1 0.2,1 1.7,1.7 0 0 0 0.3,0.7 2.9,2.9 0 0 1 0.5,1.2 8.5,8.5 0 0 0 0.3,1 l 0.4,1.4 a 5.4,5.4 0 0 0 0.6,1.5 8.5,8.5 0 0 1 0.8,2.1 l 0.2,0.5 a 2.1,2.1 0 0 1 0.5,1 2.1,2.1 0 0 0 0.4,0.8 1,1 0 0 1 0.2,0.5 c 0.1,0.3 0.2,0.4 0.4,0.3 H 6.4 V 81 l 0.5,1 0.5,1 1.1,1.2 0.4,0.4 c 0.3,0.3 0.7,0.5 0.9,1 l 0.4,0.3 a 0.7,0.7 0 0 1 0.3,0.5 l 0.2,0.7 a 3.3,3.3 0 0 0 0.6,0.9 l 0.4,0.2 H 12 a 0.2,0.2 0 0 1 0.1,0.3 2.5,2.5 0 0 0 0,0.5 0.9,0.9 0 0 0 0.4,0.5 h 0.2 c 0.4,-0.1 0.8,0.2 1.2,0.7 H 14 c 0,-0.1 0.1,-0.1 0,-0.2 v -0.2 c 0,-0.1 0.1,-0.2 0.2,-0.1 a 0.7,0.7 0 0 1 0.3,0.6 v 0.2 a 4.3,4.3 0 0 0 0.4,1.2 c 0.5,0.3 0.5,0.3 0.5,0.1 0,-0.2 0,-0.2 0.2,-0.2 H 16 l 0.2,0.3 0.8,0.5 c 0.7,0.8 1.8,0.7 2.6,1.2 l 1.7,1.7 h 0.2 a 2.9,2.9 0 0 0 1.6,1.6 1.3,1.3 0 0 0 1,0.6 c 0,0.5 0.6,0.6 1.1,0.7 a 1.2,1.2 0 0 0 0.8,0.4 h 0.2 a 1.7,1.7 0 0 0 1.5,0.5 l 0.9,0.8 2.4,0.9 v 0.2 c 0.5,1.1 1.7,0.7 2.5,1 l 1.1,0.4 H 35 c 1.2,0.3 2.4,0.9 3.7,0.5 a 0.7,0.7 0 0 0 0,0.4 c 1.1,0.7 2.4,0 3.6,0.4 a 2.9,2.9 0 0 0 1.7,0.1 h 0.1 l 0.8,0.2 h 0.3 l 0.9,0.2 h 0.3 a 0.5,0.5 0 0 1 0.5,0 7.9,7.9 0 0 0 1.5,0.4 H 49 a 0.7,0.7 0 0 1 0.7,0 h 3.9 a 5,5 0 0 0 1.6,-0.1 h 1 l 0.5,-0.2 H 60 l 0.6,-0.2 0.5,-0.3 h 2.2 v 0.6 H 62 l -1.2,0.2 c -0.4,0.1 -0.7,0 -1,0.1 a 2.4,2.4 0 0 1 -1,0.2 l -1.3,0.3 h -0.4 a 3.1,3.1 0 0 0 -1.5,0.1 h -1.8 a 1.1,1.1 0 0 1 -0.9,0 h -4.5 a 1.3,1.3 0 0 0 -1.1,0.3 H 47 l -0.3,-0.2 v -0.3 h -1.2 a 4.1,4.1 0 0 0 -1.3,-0.3 H 41.7 L 41,104.6 40.5,104.4 38.4,104 h -0.5 l -0.5,-0.2 -2.1,-0.7 -1.4,-0.4 h -2.2 c -0.1,0 -0.1,0.1 -0.1,0.2 h 0.2 c 1.3,0.5 2.6,0.9 3.9,1.5 H 36 l 0.9,0.2 1.4,0.4 h 1.3 l 0.6,0.2 0.7,0.3 1.7,0.3 1.1,0.2 1.1,0.2 h 0.8 l 0.8,0.2 h 3.1 l 1,0.2 h 2.3 l 1,-0.2 H 56 c 0.4,0 0.6,-0.1 0.7,-0.3 h 1 a 1,1 0 0 0 0.8,-0.3 c -0.1,0.1 0,0.1 0.1,0.2 H 59 v -0.2 c 0,-0.1 0,-0.1 0.2,-0.2 0.2,-0.1 0.6,-0.1 0.7,0.1 h 0.4 l 0.3,-0.2 c 0.2,0 0.2,0 0.2,0.1 h 0.7 l 0.5,-0.2 0.8,-0.4 c 0.1,0.3 0.4,0.4 1.3,0.2 l 1.3,-0.4 h 1.2 c 0.9,-0.1 2,0 2.7,-0.7 h 0.2 l 0.4,-0.3 1.1,-0.3 a 6.1,6.1 0 0 0 2,-0.8 l 0.4,-0.2 h 0.1 l 0.9,-0.6 0.4,-0.2 0.5,-0.2 h 0.4 c 0.4,-0.1 0.4,-0.1 0.5,-0.4 0.1,-0.3 0,-0.1 -0.2,-0.1 h -0.1 l 0.4,-0.5 h 0.2 c 0.3,-0.1 0.5,-0.2 0.7,-0.1 h 0.2 a 1.3,1.3 0 0 0 0.9,-0.9 c 0.3,-0.4 1.1,-0.2 1.3,-0.8 l 4.3,-3.1 c 1.1,-0.1 1.4,-1.1 2.2,-1.7 0.8,-0.6 2.3,-1.1 3,-2.2 L 90,91.3 h 0.1 a 1,1 0 0 0 1.2,-0.7 V 91 c 0.8,-0.4 1.8,0.3 2.6,-0.5 0.8,-0.8 0,-2.7 1,-3.8 l 0.7,-0.5 A 12.1,12.1 0 0 0 97.1,82 l 0.2,-0.2 c 0,-0.3 0,-0.7 0.4,-0.9 a 0.9,0.9 0 0 0 0.2,-1.2 h -0.2 a 0.3,0.3 0 0 0 0,-0.3 c 0.7,0 0.8,-0.7 1.2,-1 V 77 a 0.5,0.5 0 0 1 0,-0.2 3.8,3.8 0 0 0 0.1,-0.7 z M 5.9,32.2 Z"
         id="path7"
         style="fill:#213e60;fill-opacity:1" />
      <path
         d="m 26.4,9.3 -0.3,0.2 -0.4,0.3 0.5,-0.2 z m 6.1,-2 h 0.1 l 0.3,-0.2 h -0.4 z m -2.6,1 -0.1,0.1 h 0.1 z m -1.5,1.4 z m 1.3,-0.2 z m -6.3,3.1 z M 9.2,26.2 8.8,26.6 H 9 a 0.4,0.4 0 0 0 0.2,-0.4 z m 3,-3.5 a 2.1,2.1 0 0 0 0.3,-0.6 1.5,1.5 0 0 0 -0.5,0.5 c -0.1,0.1 -0.1,0.2 0,0.2 z M 11,24.2 V 24 c -0.2,0 -0.5,0.3 -0.8,0.3 v 0.2 c 0.3,0.3 0.4,0.2 0.8,-0.3 z m 3,66.2 z M 73.9,9.2 H 74 L 73.5,8.9 Z M 71.4,7.8 c 0.5,-0.1 0.8,0.4 1.2,0.5 h 0.1 L 72.4,8.1 71.4,7.6 70.3,7.1 70.6,7.3 Z M 52.8,3.1 Z m 11.7,2 H 64.4 L 63.2,4.9 h 0.5 z m 2,0.7 1.3,0.4 A 3.3,3.3 0 0 0 66.5,5.8 Z m -9,0 a 1,1 0 0 0 0.2,-0.5 h -0.5 l -0.3,0.3 0.4,0.3 z m 9,1.6 z M 49.9,4.2 Z m 2.9,0.7 z M 48.5,4 Z m 13.8,2.1 a 0.5,0.5 0 0 0 0,0.1 z m 44.8,52.3 h -0.3 V 58 h 0.3 c 0.1,0 0.2,-0.3 0.1,-0.4 -0.1,-0.1 -0.1,-0.7 -0.3,-0.8 a 0.3,0.3 0 0 1 -0.2,-0.3 l 0.2,-0.4 a 0.4,0.4 0 0 0 0,-0.2 h -0.2 l -0.2,-0.3 c -0.1,0.3 -0.2,0.6 -0.4,0.7 a 0.5,0.5 0 0 0 0,0.2 c 0,0.1 0,0.2 -0.1,0.2 h -0.1 a 1.1,1.1 0 0 1 -0.1,0.3 2.3,2.3 0 0 0 -0.4,0.9 0.4,0.4 0 0 0 0.1,0.4 h 0.1 a 1.7,1.7 0 0 0 -0.1,0.8 v 0.4 a 1.8,1.8 0 0 1 -0.1,0.5 h -0.1 l -0.4,0.7 v 0.6 a 1.5,1.5 0 0 1 -0.3,1.1 h -0.2 l -0.2,-0.2 a 0.9,0.9 0 0 1 -0.1,-0.8 6.5,6.5 0 0 0 0.1,-1.7 c 0,-0.1 -0.1,-0.2 -0.1,-0.2 a 0.5,0.5 0 0 0 -0.1,0.3 v 0.6 c 0,0.2 -0.1,0.6 -0.3,0.7 -0.2,0.1 -0.1,0.2 -0.1,0.3 l -0.2,0.6 0.3,0.5 c -0.2,0.2 -0.4,0.1 -0.5,-0.1 v 1 h 0.3 v 0.4 a 4.2,4.2 0 0 0 -0.3,1.4 3.3,3.3 0 0 0 0,0.4 4,4 0 0 1 -0.2,1.3 2,2 0 0 0 0,0.6 l -0.3,0.7 a 3.2,3.2 0 0 1 -0.3,0.7 l -0.3,0.6 -0.9,2.7 c 0.3,0.9 -0.4,1.5 -0.8,2.1 a 2.7,2.7 0 0 1 -0.8,2.3 V 77 c 0,0.1 0.1,0.2 0.3,0.1 l 0.4,-0.3 0.2,-0.4 h 0.2 c 0.1,0.1 0.2,0.1 0.4,-0.1 h 0.2 a 0.5,0.5 0 0 1 0.1,0.6 2.9,2.9 0 0 0 -0.1,0.8 c 0,0.1 0,0.2 0.1,0.2 h 0.2 c 0.1,0.1 0.2,0 0.3,-0.3 l 0.2,-0.5 h 0.3 c 0.4,-0.1 0.4,-0.1 0.6,-0.6 l 0.5,-0.9 0.3,-0.6 0.4,-1 a 1.6,1.6 0 0 1 0.3,-1 0.6,0.6 0 0 0 0.1,-0.6 c 0,-0.2 0,-0.3 0.2,-0.6 l 0.3,-0.4 0.5,-1 a 4.7,4.7 0 0 1 0.2,-0.9 3,3 0 0 0 0.3,-1.3 3.8,3.8 0 0 1 0.3,-0.9 v -0.5 c -0.1,-0.2 -0.1,-0.2 0,-0.6 0.1,-0.4 0.1,-0.2 0.2,-0.2 a 0.4,0.4 0 0 1 0.1,0.3 l 0.2,-0.5 a 2.3,2.3 0 0 0 0.2,-0.9 v -0.3 c 0,-0.1 0,-0.3 -0.1,-0.3 v 0.4 c -0.2,0 -0.3,0.2 -0.5,0.3 a 6.4,6.4 0 0 0 0.1,-0.8 L 107,64 a 0.7,0.7 0 0 0 0.2,-0.6 1.4,1.4 0 0 1 0,-0.3 4.8,4.8 0 0 0 0.2,-1.4 v -0.2 l 0.3,-1 h 0.1 a 0.3,0.3 0 0 0 0.1,-0.3 h -0.1 a 0.9,0.9 0 0 1 0.2,-0.8 1.5,1.5 0 0 0 -0.9,-1 z m -1.2,7.8 z m -0.2,-9.9 z m 0,0 z M 9.1,30.8 a 0.3,0.3 0 0 0 0,-0.2 L 8.9,30.4 8.7,30.6 8.4,31.2 c 0,0.3 -0.3,0.6 -0.3,0.9 v 0.2 h 0.1 z m 96.3,24.8 h 0.1 a 1.7,1.7 0 0 0 0.2,-1.2 0.5,0.5 0 0 1 0.2,-0.5 h 0.1 v -0.2 l -0.2,-0.2 h -0.1 c -0.1,0.1 -0.2,0.3 -0.3,0.3 -0.1,0 -0.1,0.1 -0.1,0.3 v 0.3 a 2.2,2.2 0 0 0 0.1,1.2 z M 13.2,90.1 c -0.1,0 0,0.2 0,0.3 l 0.8,0.8 h 0.1 c -0.2,-0.3 -0.3,-0.6 -0.2,-0.7 a 0.9,0.9 0 0 1 -0.5,-0.2 z m 0.8,0.3 z m 92.3,-35.7 h 0.1 a 2,2 0 0 0 0,-0.6 c -0.3,0.1 -0.3,0.1 -0.3,0.6 0,0.5 0.1,0.1 0.2,0 z"
         id="path9"
         style="fill:#213e60;fill-opacity:1" />
      <path
         d="m 106.7,62 a 0.6,0.6 0 0 0 0.1,-0.5 c 0,-0.1 -0.1,-0.2 -0.1,-0.1 h -0.2 v 0.2 c 0,0.4 0.1,0.5 0.2,0.4 z m 0.1,-8.2 h -0.1 v 0.6 a 1,1 0 0 0 0.1,-0.6 z M 17.1,92.6 h -0.2 v 0.2 l 0.2,0.2 h 0.2 v -0.2 z m 86.6,-33.3 c 0,-0.1 0,-0.1 -0.1,-0.1 z M 9.9,86.5 10.4,87 10,86.4 Z"
         id="path11"
         style="fill:#213e60;fill-opacity:1" />
      <circle
         cx="10.5"
         cy="87.099998"
         transform="rotate(-24.8,10.4,87.159)"
         id="circle13"
         style="fill:#213e60;fill-opacity:1"
         r="0" />
      <path
         d="M 9.7,30.1 H 9.6 v 0.2 -0.2 z M 92.9,23.5 92.7,23.2 H 92.6 Z M 78.2,100.6 Z M 5.9,32.2 Z m -0.1,0.2 a 0.3,0.3 0 0 0 0.1,-0.2 v 0.2 z M 7.7,27.5 Z M 61.5,2.4 Z m 42.8,58.2 v 0.1 z M 16.4,92.5 h -0.1 c 0.1,0.1 0.2,0 0.1,-0.1 z m 0.2,0.7 h 0.1 L 16.6,93.1 Z M 90.5,21.9 Z m 15.2,34.4 z M 14.6,91.7 Z m 92.1,-37 z m -0.8,11.4 z M 34.6,0 Z"
         id="path15"
         style="fill:#213e60;fill-opacity:1" />
    </g>
    <g
       id="g2591"
       style="fill:#213e60;fill-opacity:1"
       transform="translate(-124.63889,-7.070786)">
      <path
         d="m 19.8,15.3 h 0.5 l -0.4,-0.2 z m 0.5,0.1 z m 0.8,-0.7 c 0,0.1 0,0.1 0.1,0.1 l 0.4,-0.3 c -0.2,-0.1 -0.3,-0.1 -0.5,0.2 z m 0.4,-0.2 z m -4.1,2.3 z m -0.2,0.6 0.3,-0.2 C 17.6,17.1 17.6,17 17.6,17 h -0.2 l -0.2,0.4 c -0.1,-0.1 -0.1,0 0,0 z m 2.2,-2.9 h -0.1 l -0.2,0.2 h 0.3 z m -2.1,2.4 0.6,-0.5 C 18,16.3 18,16.2 18,16.1 H 17.7 L 16.5,17.2 16.3,17.6 17,17 Z m -1.1,0.8 z"
         id="path2577"
         style="fill:#213e60;fill-opacity:1" />
      <path
         d="m 9.7,25 v -0.2 a 1.7,1.7 0 0 1 0.7,-1.1 l 0.9,-0.6 0.5,-0.6 0.7,-0.7 0.4,-0.4 0.4,-0.3 a 1.9,1.9 0 0 0 0.8,-0.9 l 0.4,-0.5 a 5.9,5.9 0 0 0 1,-1.3 l 0.2,-0.3 0.3,-0.2 -0.2,-0.3 0.4,-0.5 c 0.8,-0.6 1.4,-1.4 2.2,-2 l 0.3,-0.3 a 1.4,1.4 0 0 1 0.5,-0.6 L 20,13.8 h 0.4 a 1.4,1.4 0 0 0 0.7,-0.6 V 13 a 3.5,3.5 0 0 1 1.3,-1.4 l 0.8,-0.5 0.2,-0.2 0.4,-0.4 1,-0.5 H 25 l -1.1,0.4 -1.4,1 c -0.6,0.5 -1.4,0.6 -1.8,1.4 H 21 c -0.7,0.2 -1.4,0.5 -1.7,1.2 -0.3,0.7 -0.8,0.6 -1.2,0.9 a 0.4,0.4 0 0 0 -0.3,0.4 C 17,15.2 16.7,15.8 16.3,16.2 V 17 a 3.9,3.9 0 0 0 -1.6,1.4 c -1.6,0.1 -1.6,2.1 -3,2.5 h -0.1 a 0.2,0.2 0 0 0 0,0.2 c -0.3,0 -0.5,0.2 -0.4,0.5 L 11,22.1 c -0.7,0.4 -0.6,1.1 -1,1.7 -0.8,0.5 -1.1,1.5 -1.7,2.2 l 0.3,0.5 0.2,-0.2 A 11.6,11.6 0 0 1 9.7,25 Z M 53.9,3.3 54.5,3.5 h 0.2 a 2.2,2.2 0 0 0 1.4,0.2 4.1,4.1 0 0 1 1.9,0.1 h 1.2 a 1.4,1.4 0 0 1 1.2,0.3 0.1,0.1 0 0 1 0,0.1 H 60 a 0.1,0.1 0 0 0 0,0.1 h 0.7 a 1.8,1.8 0 0 1 1.3,0 c 0.2,0 0.1,0.1 0.2,0.2 l 0.5,0.2 H 62.5 C 62.3,4.3 62,4.3 61.7,4.3 A 9.7,9.7 0 0 0 57.4,3.4 H 56.6 A 9.8,9.8 0 0 0 53,3 h 0.2 z m 7.3,3.1 z M 50.3,4.7 Z m 10.9,1.7 h 0.2 z M 19,14.7 Z m 32.1,-10 z m 17.6,2.2 a 0.9,0.9 0 0 0 1,0.2 h 0.6 A 3.1,3.1 0 0 0 68.5,6.4 L 67.8,6.2 68.3,6.5 Z M 65.3,5.6 c 0,0.1 0.1,0.2 0.2,0.3 h 0.2 L 66.2,5.6 A 4.2,4.2 0 0 0 64.5,5 l 0.7,0.4 z m 7.4,2.7 0.8,0.5 C 73.3,8.5 73.1,8.3 72.7,8.3 Z"
         id="path2579"
         style="fill:#213e60;fill-opacity:1" />
      <path
         d="m 99,76.1 0.6,-1.6 0.6,-1.5 c 0.2,-0.5 0.6,-1.8 0.8,-2.6 a 1.7,1.7 0 0 1 0.3,-0.7 h 0.1 v -1.1 c 0.5,-0.1 0.4,-0.6 0.5,-0.9 l 0.8,-4.7 a 12.7,12.7 0 0 0 0,-6.2 1.9,1.9 0 0 0 -0.5,-1.6 V 50.9 C 101.9,50 102.5,49 101.8,48.2 L 101,45 a 0.4,0.4 0 0 0 0,-0.2 l -0.2,-0.6 a 0.5,0.5 0 0 1 0,-0.4 h 0.1 c 0.3,0 0.3,-0.5 0.3,-0.9 a 3,3 0 0 0 -0.4,-1.1 l -0.3,-0.4 a 1.1,1.1 0 0 1 -0.2,-0.7 6.7,6.7 0 0 0 -0.2,-2 V 38.1 C 99.9,37.4 99.7,36.6 99.5,35.9 L 99.3,35.4 A 2.5,2.5 0 0 1 98.9,34.3 2.5,2.5 0 0 0 98.6,33.5 L 98,32.5 A 0.8,0.8 0 0 0 97.4,32.3 H 97.3 V 32 H 97.1 V 31.2 H 97 V 31 a 0.4,0.4 0 0 0 0,-0.1 v -0.2 c 0.1,-0.2 0.1,-0.3 -0.1,-0.5 A 1.8,1.8 0 0 1 96.5,29.6 L 96.3,29 a 2.9,2.9 0 0 0 -0.7,-1.2 2.2,2.2 0 0 1 -0.5,-0.7 l -0.7,-1.6 a 4.3,4.3 0 0 0 -0.6,-1 l -0.6,-0.8 a 2.4,2.4 0 0 1 -0.4,-0.8 l -0.2,-0.3 a 0.6,0.6 0 0 1 -0.1,-0.5 0.5,0.5 0 0 0 -0.2,-0.4 l -0.4,-0.3 v 0.2 c 0.1,0.2 0,0.3 -0.1,0.3 h -0.2 l 0.3,1 0.3,0.5 0.7,0.9 H 92.8 L 92.6,24.1 92.4,23.9 A 1.3,1.3 0 0 0 91.2,22.8 V 22.1 C 90.9,20.9 89.6,20.8 89,20 a 1.5,1.5 0 0 0 -1.1,-0.9 l -0.8,-0.9 a 11.3,11.3 0 0 0 -3.1,-3 l -0.8,-0.6 -0.4,-0.3 c -0.7,-0.7 -1,-1.8 -2.2,-1.8 L 79.8,12 78.9,11.3 A 2.2,2.2 0 0 0 77.1,10 5.1,5.1 0 0 0 74.8,8.8 L 75,9 l 0.5,0.4 1.3,0.7 a 8.5,8.5 0 0 1 2.1,1.6 6.8,6.8 0 0 0 1.5,1.1 l 0.6,0.5 c 0.1,0.1 0.2,0.2 0.1,0.3 H 81 l -0.9,-0.3 a 5.6,5.6 0 0 1 -2,-0.8 L 76.9,11.9 75.6,11.2 H 75.4 C 75.1,11.1 75,10.8 74.6,10.7 L 73.8,10.5 71.3,10 A 2.6,2.6 0 0 1 70.4,9.3 1.7,1.7 0 0 1 69.5,9 l -1,-0.4 A 18.1,18.1 0 0 1 65.7,7.8 L 65.1,7.6 64.1,7.3 H 63.6 L 63.4,7 V 6.9 H 61.8 L 61.2,6.4 60.8,6.6 60.4,6.8 H 60.2 L 59.3,6.3 C 58.7,6.9 58.2,6.1 57.7,6.2 l -1,-0.3 a 1.2,1.2 0 0 1 -1.2,0 H 54.3 A 0.6,0.6 0 0 1 53.8,5.3 l 0.3,-0.2 h 0.6 a 0.7,0.7 0 0 1 0.1,0.3 c 0,0.2 0.2,0.2 0.5,0.2 h 0.2 L 55.1,5 a 1.1,1.1 0 0 0 -1,-0.2 l -1,0.3 H 53 c 0.3,0.2 0.2,0.3 0.2,0.5 H 51.6 L 51.2,5.4 50.4,5 H 50.3 L 49.6,4.8 h -2.3 l 0.4,-0.2 0.8,-0.2 h 0.3 l 1.7,-0.3 1.1,-0.2 0.6,-0.2 h -1.1 a 8.4,8.4 0 0 0 -3.4,0 H 46.4 L 43,3.6 c -1.4,0.1 -2.8,0 -3.9,1.2 -2.5,-0.4 -4.7,0.7 -6.9,1.8 L 30,7.5 a 6.7,6.7 0 0 0 -3.7,1.8 h 0.3 l 0.5,-0.3 0.8,-0.5 1.3,-0.6 1,-0.2 a 6,6 0 0 1 2,-0.9 l 0.9,-0.3 h 0.2 c 0.1,0.2 0.5,0 0.7,0 h 0.2 c 0.1,0 0.1,0.1 0,0.1 l -0.6,0.4 1,-0.3 0.8,-0.2 -1.3,0.7 -1.3,0.4 a 1,1 0 0 0 -0.6,0.5 l -0.3,0.5 h 0.3 L 32.6,8.4 A 1.4,1.4 0 0 1 33.5,7.8 L 35,7.3 h 0.5 a 0.1118034,0.1118034 0 0 1 0.1,0.2 C 35.4,7.7 35,7.8 34.8,8 H 35 L 31.8,8.9 28,10.5 A 5.2,5.2 0 0 1 25.7,11.7 6.6,6.6 0 0 1 24,12.8 L 23.2,13 a 1.5,1.5 0 0 1 -1.3,0.9 l -0.3,0.5 a 3.7,3.7 0 0 1 -1.2,1.1 h -0.1 v -0.1 l -0.2,0.2 -0.2,0.2 -1,0.2 H 18.4 L 18,16.5 c -0.1,0.1 -0.1,0.2 0,0.2 h 0.1 c -0.6,0.6 -1,1.4 -1.8,1.7 L 15,19.9 c -0.6,1.2 -1.8,1.6 -2.6,2.6 -0.8,1 -1.4,3.9 -3.9,4.3 L 8.3,26.5 8.1,27 a 2.7,2.7 0 0 1 -0.4,0.8 16.9,16.9 0 0 0 -1.2,2.1 0.8,0.8 0 0 0 -0.1,0.5 1.4,1.4 0 0 1 -0.2,0.8 l -0.5,1.1 h 0.2 c 0.3,0 0.3,0.3 0.4,0.6 l 0.8,-1.1 a 2.2,2.2 0 0 1 0.6,-0.7 2,2 0 0 0 0.9,-0.9 l 0.3,-0.3 0.4,-0.4 0.6,-1.1 h 0.2 c 0.1,0.1 0.1,0.1 0.2,0 L 10.5,28 H 11 v 0.8 l 0.5,-0.5 a 0.5,0.5 0 0 0 0,-0.5 0.4,0.4 0 0 1 0.1,-0.3 1.5,1.5 0 0 0 0.3,-0.5 1.3,1.3 0 0 1 0.8,-0.9 l 0.3,-0.2 0.3,-0.3 a 2.4,2.4 0 0 0 0.8,-1 l -0.2,-0.3 c 0,-0.1 0.1,-0.3 0.2,-0.4 h 0.5 l 0.6,-0.8 0.6,-0.3 H 16 A 48.8,48.8 0 0 0 10.5,30 h -0.1 0.1 A 48.4,48.4 0 0 0 5.2,41.2 H 4.7 L 4.2,40.8 C 4,40.6 4.1,40.1 3.8,39.9 H 3.9 C 4.2,39.4 3.8,38.7 4.2,38.2 4.6,37.7 4.3,36.8 3.3,37 c -1,0.2 -1.5,0.5 -1.3,1.5 0.2,1 -1,1.8 -1.1,2.9 -0.1,1.1 -0.5,0.5 -0.3,0.9 v 3.9 C 0.7,47 0.1,48 1.4,48.3 l 1.3,0.9 c 0.1,0.5 -0.5,1.6 0.9,1.3 a 49.2,49.2 0 0 0 -0.3,5 c 0,1.1 0.1,2.2 0.1,3.3 V 58.4 C 3.3,58 3.3,57.6 3.2,57.1 L 2.9,57.4 V 57.2 H 2.4 C 2.4,57.7 2.3,58 2,58.1 a 0.9,0.9 0 0 0 -0.1,0.5 c 0,0.1 0.1,0.3 0.2,0.2 0.1,-0.1 0.4,0.2 0.7,0.4 0.3,0.2 -0.2,0.3 -0.4,0.2 -0.2,-0.1 -0.2,0.1 -0.2,0.3 V 60 l 0.5,1.5 c 0,0.3 -0.1,0.6 -0.1,0.9 a 1.7,1.7 0 0 0 0.2,0.8 H 2.5 V 62.9 L 1.8,62.7 V 62.1 A 1.5,1.5 0 0 0 1.8,61.6 14.6,14.6 0 0 1 1.5,59.8 16.6,16.6 0 0 1 1.3,56.3 0.9,0.9 0 0 1 1.4,55.8 V 56 a 2.9,2.9 0 0 1 0.1,0.5 0.8,0.8 0 0 0 0.1,0.4 c 0.1,0.2 0.2,0.4 0.4,0.4 0.2,0 0.1,-0.1 0.1,-0.2 A 2.1,2.1 0 0 0 2,56.6 4.2,4.2 0 0 1 1.7,55.3 1.5,1.5 0 0 0 1.4,54.6 1.6,1.6 0 0 1 1.2,53.7 V 52.9 C 1.2,52.6 1.3,52.3 1.3,52 A 0.5,0.5 0 0 0 1.2,51.6 H 1.1 C 0.3,52 0.4,51.8 0.1,53.2 V 55 c 0,0.7 -0.1,1.4 0,2.1 a 10.8,10.8 0 0 0 0.2,2.3 1.8,1.8 0 0 1 0,0.5 3.1,3.1 0 0 0 0.1,0.9 5.9,5.9 0 0 1 0.1,1.3 3.9,3.9 0 0 0 0.2,1.7 1.2,1.2 0 0 1 0,0.4 2.1,2.1 0 0 0 0.1,0.8 4.9,4.9 0 0 1 0.2,0.9 14,14 0 0 0 0.5,2.2 5,5 0 0 1 0.2,1 1.7,1.7 0 0 0 0.3,0.7 2.9,2.9 0 0 1 0.5,1.2 8.5,8.5 0 0 0 0.3,1 l 0.4,1.4 a 5.4,5.4 0 0 0 0.6,1.5 8.5,8.5 0 0 1 0.8,2.1 l 0.2,0.5 a 2.1,2.1 0 0 1 0.5,1 2.1,2.1 0 0 0 0.4,0.8 1,1 0 0 1 0.2,0.5 c 0.1,0.3 0.2,0.4 0.4,0.3 H 6.4 V 81 l 0.5,1 0.5,1 1.1,1.2 0.4,0.4 c 0.3,0.3 0.7,0.5 0.9,1 l 0.4,0.3 a 0.7,0.7 0 0 1 0.3,0.5 l 0.2,0.7 a 3.3,3.3 0 0 0 0.6,0.9 l 0.4,0.2 H 12 a 0.2,0.2 0 0 1 0.1,0.3 2.5,2.5 0 0 0 0,0.5 0.9,0.9 0 0 0 0.4,0.5 h 0.2 c 0.4,-0.1 0.8,0.2 1.2,0.7 H 14 c 0,-0.1 0.1,-0.1 0,-0.2 v -0.2 c 0,-0.1 0.1,-0.2 0.2,-0.1 a 0.7,0.7 0 0 1 0.3,0.6 v 0.2 a 4.3,4.3 0 0 0 0.4,1.2 c 0.5,0.3 0.5,0.3 0.5,0.1 0,-0.2 0,-0.2 0.2,-0.2 H 16 l 0.2,0.3 0.8,0.5 c 0.7,0.8 1.8,0.7 2.6,1.2 l 1.7,1.7 h 0.2 a 2.9,2.9 0 0 0 1.6,1.6 1.3,1.3 0 0 0 1,0.6 c 0,0.5 0.6,0.6 1.1,0.7 a 1.2,1.2 0 0 0 0.8,0.4 h 0.2 a 1.7,1.7 0 0 0 1.5,0.5 l 0.9,0.8 2.4,0.9 v 0.2 c 0.5,1.1 1.7,0.7 2.5,1 l 1.1,0.4 H 35 c 1.2,0.3 2.4,0.9 3.7,0.5 a 0.7,0.7 0 0 0 0,0.4 c 1.1,0.7 2.4,0 3.6,0.4 a 2.9,2.9 0 0 0 1.7,0.1 h 0.1 l 0.8,0.2 h 0.3 l 0.9,0.2 h 0.3 a 0.5,0.5 0 0 1 0.5,0 7.9,7.9 0 0 0 1.5,0.4 H 49 a 0.7,0.7 0 0 1 0.7,0 h 3.9 a 5,5 0 0 0 1.6,-0.1 h 1 l 0.5,-0.2 H 60 l 0.6,-0.2 0.5,-0.3 h 2.2 v 0.6 H 62 l -1.2,0.2 c -0.4,0.1 -0.7,0 -1,0.1 a 2.4,2.4 0 0 1 -1,0.2 l -1.3,0.3 h -0.4 a 3.1,3.1 0 0 0 -1.5,0.1 h -1.8 a 1.1,1.1 0 0 1 -0.9,0 h -4.5 a 1.3,1.3 0 0 0 -1.1,0.3 H 47 l -0.3,-0.2 v -0.3 h -1.2 a 4.1,4.1 0 0 0 -1.3,-0.3 H 41.7 L 41,104.6 40.5,104.4 38.4,104 h -0.5 l -0.5,-0.2 -2.1,-0.7 -1.4,-0.4 h -2.2 c -0.1,0 -0.1,0.1 -0.1,0.2 h 0.2 c 1.3,0.5 2.6,0.9 3.9,1.5 H 36 l 0.9,0.2 1.4,0.4 h 1.3 l 0.6,0.2 0.7,0.3 1.7,0.3 1.1,0.2 1.1,0.2 h 0.8 l 0.8,0.2 h 3.1 l 1,0.2 h 2.3 l 1,-0.2 H 56 c 0.4,0 0.6,-0.1 0.7,-0.3 h 1 a 1,1 0 0 0 0.8,-0.3 c -0.1,0.1 0,0.1 0.1,0.2 H 59 v -0.2 c 0,-0.1 0,-0.1 0.2,-0.2 0.2,-0.1 0.6,-0.1 0.7,0.1 h 0.4 l 0.3,-0.2 c 0.2,0 0.2,0 0.2,0.1 h 0.7 l 0.5,-0.2 0.8,-0.4 c 0.1,0.3 0.4,0.4 1.3,0.2 l 1.3,-0.4 h 1.2 c 0.9,-0.1 2,0 2.7,-0.7 h 0.2 l 0.4,-0.3 1.1,-0.3 a 6.1,6.1 0 0 0 2,-0.8 l 0.4,-0.2 h 0.1 l 0.9,-0.6 0.4,-0.2 0.5,-0.2 h 0.4 c 0.4,-0.1 0.4,-0.1 0.5,-0.4 0.1,-0.3 0,-0.1 -0.2,-0.1 h -0.1 l 0.4,-0.5 h 0.2 c 0.3,-0.1 0.5,-0.2 0.7,-0.1 h 0.2 a 1.3,1.3 0 0 0 0.9,-0.9 c 0.3,-0.4 1.1,-0.2 1.3,-0.8 l 4.3,-3.1 c 1.1,-0.1 1.4,-1.1 2.2,-1.7 0.8,-0.6 2.3,-1.1 3,-2.2 L 90,91.3 h 0.1 a 1,1 0 0 0 1.2,-0.7 V 91 c 0.8,-0.4 1.8,0.3 2.6,-0.5 0.8,-0.8 0,-2.7 1,-3.8 l 0.7,-0.5 A 12.1,12.1 0 0 0 97.1,82 l 0.2,-0.2 c 0,-0.3 0,-0.7 0.4,-0.9 a 0.9,0.9 0 0 0 0.2,-1.2 h -0.2 a 0.3,0.3 0 0 0 0,-0.3 c 0.7,0 0.8,-0.7 1.2,-1 V 77 a 0.5,0.5 0 0 1 0,-0.2 3.8,3.8 0 0 0 0.1,-0.7 z M 5.9,32.2 Z"
         id="path2581"
         style="fill:#213e60;fill-opacity:1" />
      <path
         d="m 26.4,9.3 -0.3,0.2 -0.4,0.3 0.5,-0.2 z m 6.1,-2 h 0.1 l 0.3,-0.2 h -0.4 z m -2.6,1 -0.1,0.1 h 0.1 z m -1.5,1.4 z m 1.3,-0.2 z m -6.3,3.1 z M 9.2,26.2 8.8,26.6 H 9 a 0.4,0.4 0 0 0 0.2,-0.4 z m 3,-3.5 a 2.1,2.1 0 0 0 0.3,-0.6 1.5,1.5 0 0 0 -0.5,0.5 c -0.1,0.1 -0.1,0.2 0,0.2 z M 11,24.2 V 24 c -0.2,0 -0.5,0.3 -0.8,0.3 v 0.2 c 0.3,0.3 0.4,0.2 0.8,-0.3 z m 3,66.2 z M 73.9,9.2 H 74 L 73.5,8.9 Z M 71.4,7.8 c 0.5,-0.1 0.8,0.4 1.2,0.5 h 0.1 L 72.4,8.1 71.4,7.6 70.3,7.1 70.6,7.3 Z M 52.8,3.1 Z m 11.7,2 H 64.4 L 63.2,4.9 h 0.5 z m 2,0.7 1.3,0.4 A 3.3,3.3 0 0 0 66.5,5.8 Z m -9,0 a 1,1 0 0 0 0.2,-0.5 h -0.5 l -0.3,0.3 0.4,0.3 z m 9,1.6 z M 49.9,4.2 Z m 2.9,0.7 z M 48.5,4 Z m 13.8,2.1 a 0.5,0.5 0 0 0 0,0.1 z m 44.8,52.3 h -0.3 V 58 h 0.3 c 0.1,0 0.2,-0.3 0.1,-0.4 -0.1,-0.1 -0.1,-0.7 -0.3,-0.8 a 0.3,0.3 0 0 1 -0.2,-0.3 l 0.2,-0.4 a 0.4,0.4 0 0 0 0,-0.2 h -0.2 l -0.2,-0.3 c -0.1,0.3 -0.2,0.6 -0.4,0.7 a 0.5,0.5 0 0 0 0,0.2 c 0,0.1 0,0.2 -0.1,0.2 h -0.1 a 1.1,1.1 0 0 1 -0.1,0.3 2.3,2.3 0 0 0 -0.4,0.9 0.4,0.4 0 0 0 0.1,0.4 h 0.1 a 1.7,1.7 0 0 0 -0.1,0.8 v 0.4 a 1.8,1.8 0 0 1 -0.1,0.5 h -0.1 l -0.4,0.7 v 0.6 a 1.5,1.5 0 0 1 -0.3,1.1 h -0.2 l -0.2,-0.2 a 0.9,0.9 0 0 1 -0.1,-0.8 6.5,6.5 0 0 0 0.1,-1.7 c 0,-0.1 -0.1,-0.2 -0.1,-0.2 a 0.5,0.5 0 0 0 -0.1,0.3 v 0.6 c 0,0.2 -0.1,0.6 -0.3,0.7 -0.2,0.1 -0.1,0.2 -0.1,0.3 l -0.2,0.6 0.3,0.5 c -0.2,0.2 -0.4,0.1 -0.5,-0.1 v 1 h 0.3 v 0.4 a 4.2,4.2 0 0 0 -0.3,1.4 3.3,3.3 0 0 0 0,0.4 4,4 0 0 1 -0.2,1.3 2,2 0 0 0 0,0.6 l -0.3,0.7 a 3.2,3.2 0 0 1 -0.3,0.7 l -0.3,0.6 -0.9,2.7 c 0.3,0.9 -0.4,1.5 -0.8,2.1 a 2.7,2.7 0 0 1 -0.8,2.3 V 77 c 0,0.1 0.1,0.2 0.3,0.1 l 0.4,-0.3 0.2,-0.4 h 0.2 c 0.1,0.1 0.2,0.1 0.4,-0.1 h 0.2 a 0.5,0.5 0 0 1 0.1,0.6 2.9,2.9 0 0 0 -0.1,0.8 c 0,0.1 0,0.2 0.1,0.2 h 0.2 c 0.1,0.1 0.2,0 0.3,-0.3 l 0.2,-0.5 h 0.3 c 0.4,-0.1 0.4,-0.1 0.6,-0.6 l 0.5,-0.9 0.3,-0.6 0.4,-1 a 1.6,1.6 0 0 1 0.3,-1 0.6,0.6 0 0 0 0.1,-0.6 c 0,-0.2 0,-0.3 0.2,-0.6 l 0.3,-0.4 0.5,-1 a 4.7,4.7 0 0 1 0.2,-0.9 3,3 0 0 0 0.3,-1.3 3.8,3.8 0 0 1 0.3,-0.9 v -0.5 c -0.1,-0.2 -0.1,-0.2 0,-0.6 0.1,-0.4 0.1,-0.2 0.2,-0.2 a 0.4,0.4 0 0 1 0.1,0.3 l 0.2,-0.5 a 2.3,2.3 0 0 0 0.2,-0.9 v -0.3 c 0,-0.1 0,-0.3 -0.1,-0.3 v 0.4 c -0.2,0 -0.3,0.2 -0.5,0.3 a 6.4,6.4 0 0 0 0.1,-0.8 L 107,64 a 0.7,0.7 0 0 0 0.2,-0.6 1.4,1.4 0 0 1 0,-0.3 4.8,4.8 0 0 0 0.2,-1.4 v -0.2 l 0.3,-1 h 0.1 a 0.3,0.3 0 0 0 0.1,-0.3 h -0.1 a 0.9,0.9 0 0 1 0.2,-0.8 1.5,1.5 0 0 0 -0.9,-1 z m -1.2,7.8 z m -0.2,-9.9 z m 0,0 z M 9.1,30.8 a 0.3,0.3 0 0 0 0,-0.2 L 8.9,30.4 8.7,30.6 8.4,31.2 c 0,0.3 -0.3,0.6 -0.3,0.9 v 0.2 h 0.1 z m 96.3,24.8 h 0.1 a 1.7,1.7 0 0 0 0.2,-1.2 0.5,0.5 0 0 1 0.2,-0.5 h 0.1 v -0.2 l -0.2,-0.2 h -0.1 c -0.1,0.1 -0.2,0.3 -0.3,0.3 -0.1,0 -0.1,0.1 -0.1,0.3 v 0.3 a 2.2,2.2 0 0 0 0.1,1.2 z M 13.2,90.1 c -0.1,0 0,0.2 0,0.3 l 0.8,0.8 h 0.1 c -0.2,-0.3 -0.3,-0.6 -0.2,-0.7 a 0.9,0.9 0 0 1 -0.5,-0.2 z m 0.8,0.3 z m 92.3,-35.7 h 0.1 a 2,2 0 0 0 0,-0.6 c -0.3,0.1 -0.3,0.1 -0.3,0.6 0,0.5 0.1,0.1 0.2,0 z"
         id="path2583"
         style="fill:#213e60;fill-opacity:1" />
      <path
         d="m 106.7,62 a 0.6,0.6 0 0 0 0.1,-0.5 c 0,-0.1 -0.1,-0.2 -0.1,-0.1 h -0.2 v 0.2 c 0,0.4 0.1,0.5 0.2,0.4 z m 0.1,-8.2 h -0.1 v 0.6 a 1,1 0 0 0 0.1,-0.6 z M 17.1,92.6 h -0.2 v 0.2 l 0.2,0.2 h 0.2 v -0.2 z m 86.6,-33.3 c 0,-0.1 0,-0.1 -0.1,-0.1 z M 9.9,86.5 10.4,87 10,86.4 Z"
         id="path2585"
         style="fill:#213e60;fill-opacity:1" />
      <circle
         cx="10.5"
         cy="87.099998"
         transform="rotate(-24.8,10.4,87.159)"
         id="circle2587"
         style="fill:#213e60;fill-opacity:1"
         r="0" />
      <path
         d="M 9.7,30.1 H 9.6 v 0.2 -0.2 z M 92.9,23.5 92.7,23.2 H 92.6 Z M 78.2,100.6 Z M 5.9,32.2 Z m -0.1,0.2 a 0.3,0.3 0 0 0 0.1,-0.2 v 0.2 z M 7.7,27.5 Z M 61.5,2.4 Z m 42.8,58.2 v 0.1 z M 16.4,92.5 h -0.1 c 0.1,0.1 0.2,0 0.1,-0.1 z m 0.2,0.7 h 0.1 L 16.6,93.1 Z M 90.5,21.9 Z m 15.2,34.4 z M 14.6,91.7 Z m 92.1,-37 z m -0.8,11.4 z M 34.6,0 Z"
         id="path2589"
         style="fill:#213e60;fill-opacity:1" />
    </g>
  </g>
  <g
     id="SvgjsG2686"
     featurekey="nameFeature-0"
     transform="matrix(2.2843543,0,0,2.2843543,27.980057,-5.6095203)"
     fill="#ffffff">
    <path
       d="m 9.6,16.48 -0.32,4.24 c -0.08,1.8 2.6,1.96 2.72,0.2 l 0.24,-4.28 C 12.36,14.88 9.68,14.68 9.6,16.48 Z M 0.48,11 v 0 c 0.04,0 20.48,-0.32 20.56,-0.2 1.28,1.12 0.96,27.8 0.12,28.56 -0.4,0.32 -4.64,0.56 -9.2,0.6 -0.84,-3.84 -0.2,-8.32 -0.2,-8.32 C 12,29.84 9.32,29.52 9.12,31.24 9.12,31.28 8.48,35.76 9.28,40 4.72,39.96 0.6,39.76 0.36,39.36 -0.44,37.92 0.36,11.08 0.48,11 Z"
       id="path20" />
  </g>
</svg>
