<svg width="310" height="296" viewBox="0 0 310 296" fill="none" xmlns="http://www.w3.org/2000/svg">
<path d="M283.519 208.409L285.236 203.832L286.952 199.542C287.524 198.111 288.668 194.393 289.24 192.105C289.371 191.381 289.664 190.696 290.098 190.102H290.384V186.956C291.814 186.67 291.528 185.24 291.814 184.382L294.103 170.938C295.568 165.117 295.568 159.024 294.103 153.204C294.23 152.382 294.168 151.542 293.92 150.749C293.672 149.956 293.245 149.23 292.673 148.627V136.327C291.814 133.753 293.531 130.893 291.528 128.604L289.24 119.451C289.289 119.264 289.289 119.067 289.24 118.879L288.668 117.163C288.589 116.982 288.549 116.788 288.549 116.591C288.549 116.394 288.589 116.199 288.668 116.019H288.954C289.812 116.019 289.812 114.589 289.812 113.444C289.641 112.331 289.252 111.261 288.668 110.298L287.81 109.154C287.398 108.571 287.196 107.865 287.238 107.152C287.336 105.227 287.143 103.298 286.666 101.431V99.7146C286.094 97.7123 285.522 95.424 284.95 93.4218L284.378 91.9916C283.753 91.0481 283.36 89.9697 283.233 88.8452C283.081 88.0388 282.79 87.2648 282.375 86.5569L280.659 83.6965C280.427 83.4895 280.155 83.332 279.86 83.2337C279.565 83.1353 279.253 83.0981 278.943 83.1244H278.657V82.2663H278.085V79.978H277.799V79.4059C277.811 79.311 277.811 79.2149 277.799 79.1199V78.5478C278.085 77.9758 278.085 77.6897 277.513 77.1177C277.019 76.6286 276.63 76.0448 276.368 75.4014L275.796 73.6852C275.417 72.3957 274.73 71.2178 273.794 70.2528C273.19 69.686 272.704 69.0055 272.364 68.2505L270.362 63.6739C269.922 62.6469 269.345 61.6846 268.645 60.8135L266.929 58.5252C266.408 57.8409 266.02 57.0647 265.785 56.2369L265.213 55.3788C265.063 55.1761 264.96 54.9428 264.91 54.6956C264.861 54.4484 264.867 54.1934 264.927 53.9486C264.927 53.7266 264.875 53.5076 264.776 53.309C264.677 53.1104 264.533 52.9377 264.355 52.8045L263.211 51.9464V52.5185C263.497 53.0905 263.211 53.3766 262.925 53.3766H262.353L263.211 56.2369L264.069 57.6671L266.071 60.2415H265.785L265.213 59.6694L264.641 59.0973C264.512 58.2604 264.102 57.4925 263.478 56.9203C262.854 56.3482 262.053 56.0062 261.208 55.9509V53.9486C260.35 50.5162 256.632 50.2302 254.916 47.9419C254.645 47.2861 254.216 46.7077 253.667 46.2584C253.118 45.8091 252.466 45.503 251.769 45.3675L249.481 42.7932C247.104 39.3899 244.093 36.4765 240.614 34.2121L238.325 32.4959L237.181 31.6377C235.179 29.6355 234.321 26.4891 230.889 26.4891L228.6 25.0589L226.026 23.0566C225.575 22.0359 224.86 21.1536 223.955 20.5002C223.05 19.8468 221.988 19.4457 220.877 19.3381C219.017 17.646 216.751 16.4636 214.298 15.9057L214.87 16.4778L216.301 17.6219L220.019 19.6242C222.248 20.8276 224.274 22.3717 226.026 24.2008C227.305 25.4412 228.749 26.4999 230.316 27.3472L232.033 28.7774C232.319 29.0634 232.605 29.3494 232.319 29.6355H232.033L229.458 28.7774C227.421 28.392 225.478 27.6149 223.738 26.4891L220.305 24.7728L216.587 22.7706H216.015C215.156 22.4845 214.87 21.6264 213.726 21.3404L211.438 20.7683L204.287 19.3381C203.291 18.8694 202.412 18.1856 201.713 17.3359C200.791 17.2999 199.898 17.0023 199.138 16.4778L196.278 15.3336C193.551 14.7872 190.873 14.022 188.269 13.0453L186.553 12.4732L183.692 11.6151H182.262L181.69 10.757V10.471H177.114L175.397 9.0408L174.253 9.61288L173.109 10.185H172.537L169.963 8.75477C168.246 10.471 166.816 8.18269 165.386 8.46873L162.526 7.61062C162.004 7.91188 161.412 8.07048 160.809 8.07048C160.207 8.07048 159.615 7.91188 159.093 7.61062H155.661C155.257 7.54237 154.89 7.33183 154.628 7.01707C154.366 6.70231 154.225 6.30408 154.231 5.89439L155.089 5.32232H156.805C156.964 5.58279 157.062 5.87632 157.091 6.18043C157.091 6.75251 157.663 6.7525 158.521 6.7525H159.093L157.949 5.03628C157.554 4.71711 157.087 4.49836 156.589 4.39874C156.091 4.29912 155.576 4.32158 155.089 4.46421L152.228 5.32232H151.942C152.8 5.89439 152.514 6.18043 152.514 6.7525H147.938L146.794 6.18043L144.505 5.03628H144.219L142.217 4.46421H135.638L136.782 3.89213L139.071 3.32006H139.929L144.791 2.46195L147.938 1.88987L149.654 1.3178H146.508C143.3 0.65487 139.99 0.65487 136.782 1.3178H133.064L123.339 1.03176C119.334 1.3178 115.33 1.03176 112.183 4.46421C105.032 3.32006 98.7394 6.46647 92.4465 9.61288L86.1537 12.1872C82.1732 12.7509 78.4708 14.5521 75.5703 17.3359H76.4285L77.8586 16.4778L80.1469 15.0476L83.8654 13.3314L86.7258 12.7593C88.4583 11.557 90.3976 10.6843 92.4465 10.185L95.0209 9.32684H95.5929C95.879 9.89891 97.0231 9.32684 97.5952 9.32684H98.1673C98.4533 9.32684 98.4533 9.61288 98.1673 9.61288L96.451 10.757L99.3114 9.89891L101.6 9.32684L97.8812 11.3291L94.1628 12.4732C93.7954 12.5843 93.4541 12.7682 93.1592 13.0139C92.8644 13.2596 92.622 13.5621 92.4465 13.9034L91.5884 15.3336H92.4465L93.5907 14.7615C93.8845 14.319 94.2634 13.9394 94.7054 13.6448C95.1474 13.3501 95.6435 13.1464 96.165 13.0453L100.456 11.6151H101.886C101.962 11.5772 102.049 11.571 102.13 11.5978C102.21 11.6246 102.277 11.6823 102.315 11.7582C102.353 11.834 102.359 11.9218 102.332 12.0023C102.305 12.0828 102.248 12.1493 102.172 12.1872C101.6 12.7593 100.456 13.0453 99.8835 13.6174H100.456L91.3024 16.1917L80.433 20.7683C78.5652 22.4499 76.3018 23.6308 73.8541 24.2008C72.4047 25.4935 70.7646 26.5547 68.9915 27.3472L66.7032 27.9193C66.3846 28.6521 65.8677 29.2813 65.2107 29.7362C64.5537 30.191 63.7828 30.4533 62.9847 30.4936L62.1266 31.9238C61.2302 33.2144 60.0577 34.2892 58.6941 35.0702H58.4081V34.7841L57.836 35.3562L57.264 35.9283L54.4036 36.5004H52.9734L51.8293 37.9306C51.5432 38.2166 51.5432 38.5026 51.8293 38.5026H52.1153C50.3991 40.2189 49.2549 42.5072 46.9666 43.3653L43.2481 47.6558C41.5319 51.0883 38.0995 52.2324 35.8112 55.0928C33.5229 57.9532 31.8066 66.2482 24.6557 67.3924L24.0836 66.5343L23.5116 67.9645C23.2601 68.7855 22.8734 69.5589 22.3674 70.2528C21.0813 72.1705 19.9342 74.1779 18.935 76.2595C18.6862 76.6923 18.5857 77.1946 18.6489 77.6897C18.6923 78.4926 18.493 79.29 18.0769 79.978L16.6467 83.1244H17.2188C18.0769 83.1244 18.0769 83.9825 18.3629 84.8407L20.6512 81.6942C21.0754 80.9131 21.6603 80.2307 22.3674 79.692C23.483 79.1371 24.3869 78.2332 24.9418 77.1177L25.7999 76.2595L26.944 75.1154L28.6602 71.969H29.2323C29.5184 72.255 29.5184 72.255 29.8044 71.969L30.3765 70.8248H31.8066V73.1131L33.2368 71.6829C33.3624 71.4655 33.4284 71.2189 33.4284 70.9678C33.4284 70.7168 33.3624 70.4702 33.2368 70.2528C33.2237 70.0978 33.2423 69.9418 33.2915 69.7942C33.3406 69.6467 33.4194 69.5107 33.5229 69.3946C33.8997 68.9786 34.1913 68.4927 34.381 67.9645C34.5265 67.3826 34.8106 66.8446 35.2091 66.3964C35.6076 65.9481 36.1085 65.6029 36.6693 65.3901L37.5274 64.8181L38.3855 63.9599C39.3933 63.2313 40.1842 62.2427 40.6738 61.0996L40.1017 60.2415C40.1017 59.9554 40.3878 59.3833 40.6738 59.0973H42.104L43.8202 56.809L45.5364 55.9509H46.1085C40.2372 62.3131 34.9705 69.2077 30.3765 76.5456C23.9715 86.5307 18.8764 97.2976 15.2165 108.582H13.7863L12.3561 107.438C11.784 106.866 12.0701 105.435 11.212 104.863H11.498C12.3561 103.433 11.212 101.431 12.3561 100.001C13.5003 98.5704 12.6422 95.9961 9.78178 96.5682C6.92141 97.1403 5.49122 97.9984 6.0633 100.859C6.63537 103.719 3.20293 106.007 2.91689 109.154C2.63085 112.3 1.4867 110.584 2.05878 111.728V122.884C2.34482 125.172 0.628592 128.032 4.34708 128.89L8.06556 131.465C8.3516 132.895 6.63537 136.041 10.6399 135.183C10.1112 139.933 9.8248 144.706 9.78178 149.485C9.78178 152.631 10.0678 155.778 10.0678 158.924V157.78C9.78178 156.636 9.78178 155.492 9.49575 154.062L8.63763 154.92V154.348H7.20745C7.20745 155.778 6.92141 156.636 6.0633 156.922C5.83208 157.361 5.73274 157.858 5.77726 158.352C5.77726 158.638 6.0633 159.21 6.34934 158.924C6.63537 158.638 7.49349 159.496 8.3516 160.068C9.20971 160.641 7.77952 160.927 7.20745 160.641C6.63537 160.354 6.63537 160.927 6.63537 161.499V162.357L8.06556 166.647C8.06556 167.505 7.77952 168.364 7.77952 169.222C7.77952 170.02 7.97599 170.806 8.3516 171.51H7.49349V170.652L5.49122 170.08V168.364C5.57124 167.89 5.57124 167.407 5.49122 166.933C5.09811 165.237 4.81151 163.517 4.63311 161.785C4.08959 158.477 3.89783 155.121 4.06104 151.773C4.01652 151.279 4.11585 150.782 4.34708 150.343V150.915C4.48423 151.383 4.57995 151.861 4.63311 152.345C4.62685 152.745 4.72547 153.14 4.91915 153.49C5.20519 154.062 5.49122 154.634 6.0633 154.634C6.63537 154.634 6.34934 154.348 6.34934 154.062C6.31244 153.575 6.21638 153.095 6.0633 152.631C5.58096 151.446 5.29127 150.19 5.20519 148.913C5.09617 148.183 4.8006 147.493 4.34708 146.911C3.90793 146.127 3.70898 145.232 3.775 144.336V142.048C3.775 141.19 4.06104 140.332 4.06104 139.474C4.09745 139.274 4.09077 139.068 4.04145 138.871C3.99212 138.674 3.90129 138.489 3.775 138.33H3.48896C1.20067 139.474 1.4867 138.902 0.628592 142.906V148.055C0.628592 150.057 0.342555 152.059 0.628592 154.062C0.583673 156.269 0.77546 158.474 1.20067 160.641C1.2672 161.115 1.2672 161.596 1.20067 162.071C1.16949 162.938 1.26587 163.806 1.4867 164.645C1.71914 165.87 1.81507 167.117 1.77274 168.364C1.60099 170.007 1.79638 171.668 2.34482 173.226C2.40883 173.605 2.40883 173.992 2.34482 174.37C2.29147 175.144 2.38861 175.921 2.63085 176.659C2.90203 177.497 3.09357 178.359 3.20293 179.233C3.50959 181.366 3.98787 183.47 4.63311 185.526C4.92079 186.457 5.11248 187.416 5.20519 188.386C5.33612 189.11 5.62952 189.794 6.0633 190.388C6.79364 191.41 7.28265 192.583 7.49349 193.821C7.72064 194.791 8.00722 195.746 8.3516 196.681L9.49575 200.686C9.84943 202.194 10.428 203.64 11.212 204.976C12.2372 206.868 13.0067 208.888 13.5003 210.983L14.0723 212.413C14.7988 213.22 15.293 214.208 15.5025 215.274C15.7152 216.11 16.1054 216.89 16.6467 217.562C16.9646 217.977 17.1624 218.472 17.2188 218.992C17.5048 219.85 17.7908 220.136 18.3629 219.85H18.6489V222.425L20.0791 225.285L21.5093 228.145L24.6557 231.578L25.7999 232.722C26.658 233.58 27.8021 234.152 28.3742 235.582L29.5184 236.44C29.7558 236.603 29.9553 236.815 30.1034 237.062C30.2515 237.309 30.3446 237.584 30.3765 237.871L30.9485 239.873C31.3751 240.819 31.955 241.689 32.6648 242.447L33.8089 243.019H34.667C34.7494 243.048 34.8241 243.095 34.8853 243.158C34.9466 243.22 34.9928 243.295 35.0204 243.378C35.048 243.461 35.0563 243.549 35.0446 243.636C35.033 243.722 35.0016 243.805 34.9531 243.877C34.9053 244.353 34.9053 244.832 34.9531 245.308C35.1462 245.908 35.5534 246.417 36.0972 246.738H36.6693C37.8134 246.452 38.9576 247.31 40.1017 248.74H40.3878C40.3878 248.454 40.6738 248.454 40.3878 248.168V247.596C40.3878 247.31 40.6738 247.024 40.9598 247.31C41.2351 247.501 41.4579 247.759 41.6079 248.058C41.7578 248.358 41.83 248.691 41.818 249.026V249.598C42.028 250.792 42.4136 251.949 42.9621 253.031C44.3923 253.889 44.3923 253.889 44.3923 253.317C44.3923 252.744 44.3923 252.744 44.9644 252.744H46.1085L46.6806 253.603L48.9689 255.033C50.9711 257.321 54.1176 257.035 56.4058 258.465L61.2685 263.328H61.8406C62.2577 264.358 62.8779 265.295 63.6641 266.081C64.4503 266.867 65.3865 267.487 66.4172 267.904C66.7274 268.394 67.1475 268.803 67.6441 269.101C68.1407 269.399 68.7 269.577 69.2775 269.621C69.2775 271.051 70.9937 271.337 72.4239 271.623C73.0108 272.285 73.8305 272.695 74.7122 272.767H75.2843C75.8301 273.335 76.5058 273.762 77.2532 274.011C78.0006 274.26 78.7973 274.324 79.5749 274.197L82.1492 276.486L89.0141 279.06V279.632C90.4443 282.778 93.8767 281.634 96.165 282.492L99.3114 283.637H100.456C103.888 284.495 107.32 286.211 111.039 285.067C110.928 285.44 110.928 285.838 111.039 286.211C114.185 288.213 117.904 286.211 121.336 287.355C122.892 287.935 124.586 288.034 126.199 287.641H126.485L128.773 288.213H129.631L132.206 288.785H133.064C133.281 288.66 133.528 288.594 133.779 288.594C134.03 288.594 134.277 288.66 134.494 288.785C135.883 289.306 137.32 289.69 138.785 289.929H140.501C140.805 289.754 141.15 289.661 141.502 289.661C141.853 289.661 142.199 289.754 142.503 289.929H153.658C155.189 290.081 156.735 289.984 158.235 289.643H161.095L162.526 289.071H171.965L173.681 288.499L175.111 287.641H181.404V289.357H177.686L174.253 289.929C173.109 290.215 172.251 289.929 171.393 290.215C170.491 290.609 169.516 290.804 168.532 290.787L164.814 291.646H163.67C162.238 291.387 160.764 291.486 159.379 291.932H154.231C153.826 292.113 153.387 292.207 152.943 292.207C152.5 292.207 152.061 292.113 151.656 291.932H138.785C138.229 291.826 137.657 291.849 137.112 291.997C136.567 292.146 136.063 292.417 135.638 292.79H134.78L133.922 292.218V291.36H130.489C129.305 290.872 128.049 290.582 126.771 290.501H119.62L117.618 289.929L116.188 289.357L110.181 288.213H108.751L107.32 287.641L101.314 285.639L97.3092 284.495H91.0164C90.7303 284.495 90.7303 284.781 90.7303 285.067H91.3024C95.0209 286.497 98.7394 287.641 102.458 289.357H103.316L105.89 289.929L109.895 291.073H113.613L115.33 291.646L117.332 292.504L122.194 293.362L125.341 293.934L128.487 294.506H130.776L133.064 295.078H141.931L144.791 295.65H151.37L154.231 295.078H160.523C161.668 295.078 162.24 294.792 162.526 294.22H165.386C165.807 294.255 166.231 294.196 166.626 294.048C167.022 293.899 167.38 293.665 167.674 293.362C167.388 293.648 167.674 293.648 167.96 293.934H169.105V293.362C169.105 293.076 169.105 293.076 169.677 292.79C170.249 292.504 171.393 292.504 171.679 293.076H172.823L173.681 292.504C174.253 292.504 174.253 292.504 174.253 292.79H176.255L177.686 292.218L179.974 291.073C180.26 291.932 181.118 292.218 183.692 291.646L187.411 290.501H190.843C193.418 290.215 196.564 290.501 198.566 288.499H199.138L200.283 287.641L203.429 286.783C205.457 286.366 207.394 285.591 209.15 284.495L210.294 283.923H210.58L213.154 282.206L214.298 281.634L215.729 281.062H216.873C218.017 280.776 218.017 280.776 218.303 279.918C218.589 279.06 218.303 279.632 217.731 279.632H217.445L218.589 278.202H219.161C220.019 277.916 220.591 277.63 221.163 277.916H221.735C222.349 277.743 222.908 277.416 223.359 276.965C223.81 276.514 224.137 275.955 224.31 275.341C225.168 274.197 227.456 274.769 228.028 273.053L240.328 264.186C243.474 263.9 244.332 261.04 246.621 259.323C248.909 257.607 253.199 256.177 255.202 253.031L257.776 251.886H258.062C258.782 252.062 259.542 251.952 260.183 251.579C260.823 251.205 261.293 250.598 261.495 249.884V251.028C263.783 249.884 266.643 251.886 268.931 249.598C271.22 247.31 268.931 241.875 271.792 238.729L273.794 237.298C275.956 233.594 277.411 229.521 278.085 225.285L278.657 224.713C278.657 223.855 278.657 222.711 279.801 222.139C280.308 221.742 280.649 221.169 280.755 220.534C280.861 219.898 280.724 219.246 280.373 218.706H279.801C279.876 218.576 279.916 218.428 279.916 218.277C279.916 218.126 279.876 217.978 279.801 217.848C281.803 217.848 282.089 215.846 283.233 214.988V210.983C283.195 210.794 283.195 210.6 283.233 210.411C283.391 209.754 283.486 209.084 283.519 208.409Z" fill="#206572"/>
<path d="M75.8565 17.3359L74.9984 17.908L73.8543 18.7661L75.2844 18.194L75.8565 17.3359ZM93.3048 11.6151H93.5908L94.4489 11.0431H93.3048V11.6151ZM85.8678 14.4755L85.5818 14.7615H85.8678V14.4755ZM26.6581 65.6762L25.514 66.8203H26.0861C26.2845 66.7083 26.445 66.5395 26.5469 66.3357C26.6488 66.1318 26.6876 65.9022 26.6581 65.6762ZM35.2392 55.6649C35.6154 55.1425 35.9051 54.563 36.0974 53.9486C35.5135 54.3046 35.0231 54.7949 34.6672 55.3788C34.3811 55.6649 34.3811 55.9509 34.6672 55.9509L35.2392 55.6649ZM31.8068 59.9554V59.3834C31.2347 59.3834 30.3766 60.2415 29.5185 60.2415V60.8135C30.3766 61.6716 30.6626 61.3856 31.8068 59.9554ZM211.724 17.0498H212.01L210.58 16.1917L211.724 17.0498ZM204.573 13.0453C206.003 12.7593 206.862 14.1895 208.006 14.4755H208.292L207.434 13.9034L204.573 12.4732L201.427 11.0431L202.285 11.6151L204.573 13.0453ZM184.837 5.32232H184.551L181.118 4.75024H182.548L184.837 5.32232ZM190.557 7.32458L194.276 8.46873C193.129 7.83327 191.863 7.44361 190.557 7.32458ZM164.814 7.32458C165.132 6.90913 165.33 6.41446 165.386 5.89439H163.956L163.098 6.7525L164.242 7.61062L164.814 7.32458ZM178.544 8.18269C178.534 8.2778 178.534 8.37362 178.544 8.46873V8.18269ZM306.689 157.78H305.83V156.636H306.689C306.975 156.636 307.261 155.778 306.975 155.492C306.689 155.206 306.689 153.49 306.116 153.204C305.941 153.142 305.79 153.025 305.687 152.87C305.584 152.715 305.534 152.531 305.544 152.345L306.116 151.201C306.165 151.014 306.165 150.817 306.116 150.629H305.544L304.972 149.771C304.686 150.629 304.4 151.487 303.828 151.773C303.79 151.962 303.79 152.157 303.828 152.345C303.828 152.631 303.828 152.918 303.542 152.918H303.256C303.203 153.216 303.106 153.505 302.97 153.776C302.407 154.541 302.017 155.419 301.826 156.35C301.765 156.549 301.76 156.76 301.81 156.962C301.861 157.163 301.965 157.347 302.112 157.494H302.398C302.121 158.223 302.022 159.008 302.112 159.782V160.927C302.085 161.414 301.989 161.896 301.826 162.357H301.54L300.396 164.359V166.075C300.535 167.196 300.227 168.327 299.538 169.222H298.966L298.393 168.65C298.171 168.317 298.03 167.936 297.98 167.539C297.93 167.142 297.974 166.739 298.107 166.361C298.416 164.76 298.512 163.125 298.393 161.499C298.393 161.213 298.107 160.927 298.107 160.927C297.922 161.174 297.821 161.475 297.821 161.785V163.501C297.821 164.073 297.535 165.217 296.963 165.503C296.391 165.789 296.677 166.075 296.677 166.361L296.105 168.077L296.963 169.508C296.391 170.08 295.819 169.794 295.533 169.222V172.082H296.391V173.226C295.878 174.502 295.588 175.857 295.533 177.231C295.51 177.612 295.51 177.994 295.533 178.375C295.549 179.637 295.356 180.894 294.961 182.093C294.875 182.662 294.875 183.241 294.961 183.81L294.103 185.812C293.898 186.511 293.61 187.183 293.245 187.814L292.387 189.53L289.812 197.253C290.67 199.828 288.668 201.544 287.524 203.26C287.685 204.459 287.561 205.679 287.164 206.822C286.766 207.965 286.106 208.998 285.236 209.839V210.983C285.236 211.269 285.522 211.555 286.094 211.269L287.238 210.411L287.81 209.267H288.382C288.668 209.553 288.954 209.553 289.526 208.981H290.098C290.328 209.196 290.481 209.48 290.532 209.79C290.584 210.101 290.532 210.419 290.384 210.697C290.183 211.443 290.087 212.213 290.098 212.985C290.098 213.271 290.098 213.557 290.384 213.557H290.956C291.243 213.843 291.529 213.557 291.815 212.699L292.387 211.269H293.245C294.389 210.983 294.389 210.983 294.961 209.553L296.391 206.979L297.249 205.262L298.393 202.402C298.352 201.379 298.654 200.372 299.252 199.542C299.448 199.307 299.578 199.024 299.628 198.722C299.678 198.421 299.647 198.111 299.538 197.825C299.538 197.253 299.538 196.967 300.11 196.109L300.968 194.965L302.398 192.105C302.504 191.23 302.695 190.368 302.97 189.53C303.532 188.371 303.825 187.1 303.828 185.812C304.006 184.921 304.294 184.056 304.686 183.237V181.807C304.4 181.235 304.4 181.235 304.686 180.091C304.972 178.947 304.972 179.519 305.258 179.519C305.362 179.635 305.441 179.771 305.49 179.919C305.539 180.066 305.558 180.222 305.544 180.377L306.116 178.947C306.479 178.136 306.674 177.26 306.689 176.373V175.514C306.689 175.228 306.689 174.656 306.402 174.656V175.8C305.83 175.8 305.544 176.373 304.972 176.659C305.116 175.903 305.211 175.138 305.258 174.37L306.402 173.798C306.626 173.577 306.794 173.307 306.893 173.008C306.993 172.71 307.021 172.393 306.975 172.082C306.944 171.797 306.944 171.509 306.975 171.224C307.362 169.925 307.555 168.575 307.547 167.219V166.647L308.405 163.787H308.691C308.814 163.685 308.906 163.55 308.956 163.399C309.007 163.247 309.014 163.084 308.977 162.929H308.691C308.597 162.529 308.6 162.113 308.699 161.715C308.799 161.317 308.992 160.949 309.263 160.641C309.086 159.996 308.761 159.402 308.314 158.906C307.867 158.409 307.311 158.024 306.689 157.78ZM26.3721 78.8339C26.4375 78.6488 26.4375 78.4469 26.3721 78.2618L25.8 77.6897L25.2279 78.2618L24.3698 79.978C24.3698 80.8361 23.5117 81.6942 23.5117 82.5524V83.1244H23.7978L26.3721 78.8339ZM301.826 149.771H302.112C302.72 148.737 302.923 147.514 302.684 146.339C302.633 146.071 302.66 145.793 302.761 145.54C302.862 145.287 303.034 145.067 303.256 144.908H303.542V144.336L302.97 143.764H302.684C302.398 144.05 302.112 144.622 301.826 144.622C301.54 144.622 301.54 144.908 301.54 145.481V146.339C301.314 147.487 301.413 148.676 301.826 149.771ZM38.0996 248.454C37.8136 248.454 38.0996 249.026 38.0996 249.312L40.3879 251.6H40.6739C40.1019 250.742 39.8158 249.884 40.1019 249.598C39.5779 249.558 39.0789 249.358 38.6717 249.026L38.0996 248.454ZM304.4 147.197H304.686C304.773 146.628 304.773 146.049 304.686 145.481C303.828 145.767 303.828 145.767 303.828 147.197C303.828 148.627 304.114 147.483 304.4 147.197Z" fill="#206572"/>
<path d="M145.87 84.0452L143.741 112.256C143.209 124.232 161.04 125.297 161.838 113.587L163.435 85.1098C164.234 73.3996 146.402 72.0689 145.87 84.0452ZM85.1905 47.5842C85.4566 47.5842 221.454 45.4551 221.986 46.2535C230.502 53.7054 228.373 231.22 222.784 236.277C220.123 238.406 191.912 240.003 161.572 240.269C155.983 214.719 160.242 184.912 160.242 184.912C161.838 172.936 144.007 170.806 142.676 182.25C142.676 182.517 138.418 212.324 143.741 240.535C113.401 240.269 85.9889 238.938 84.3921 236.277C79.0693 226.696 84.3921 48.1165 85.1905 47.5842Z" fill="white"/>
</svg>
